<svg data-v-423bf9ae="" xmlns="http://www.w3.org/2000/svg" viewBox="0 0 177.0995354023819 163" class="iconAbove"><!----><!----><!----><g data-v-423bf9ae="" id="e098739e-ee60-487e-83c3-ff47b39417dd" fill="#25BDD6" transform="matrix(5.6872042027481005,0,0,5.6872042027481005,-5.800946001131734,82.52606493564375)"><path d="M7.35 4.20L7.35 4.65L4.41 4.65L4.41 14L3.95 14L3.95 4.65L1.02 4.65L1.02 4.20L7.35 4.20ZM12.52 4.86L12.52 4.86Q12.25 4.86 12.07 4.68L12.07 4.68L12.07 4.68Q11.89 4.49 11.89 4.23L11.89 4.23L11.89 4.23Q11.89 3.96 12.07 3.78L12.07 3.78L12.07 3.78Q12.25 3.60 12.52 3.60L12.52 3.60L12.52 3.60Q12.78 3.60 12.96 3.78L12.96 3.78L12.96 3.78Q13.15 3.96 13.15 4.23L13.15 4.23L13.15 4.23Q13.15 4.49 12.96 4.68L12.96 4.68L12.96 4.68Q12.78 4.86 12.52 4.86L12.52 4.86ZM12.77 13.55L15.13 13.55L15.13 14L12.31 14L12.31 7.45L9.59 7.45L9.59 7L12.77 7L12.77 13.55ZM21.74 6.85L21.74 6.85Q22.82 6.85 23.24 7.43L23.24 7.43L23.24 7.43Q23.66 8.02 23.66 9.35L23.66 9.35L23.66 14L23.20 14L23.20 9.52L23.20 9.52Q23.20 8.58 23.02 8.11L23.02 8.11L23.02 8.11Q22.85 7.63 22.52 7.47L22.52 7.47L22.52 7.47Q22.19 7.31 21.63 7.31L21.63 7.31L21.63 7.31Q21.08 7.31 20.50 7.64L20.50 7.64L20.50 7.64Q19.91 7.97 19.51 8.45L19.51 8.45L19.51 8.45Q19.11 8.93 19.10 9.37L19.10 9.37L19.10 14L18.63 14L18.63 9.17L18.63 7L19.10 7L19.10 8.29L19.10 8.29Q19.52 7.64 20.22 7.25L20.22 7.25L20.22 7.25Q20.93 6.85 21.74 6.85L21.74 6.85ZM29.44 14.15L29.44 14.15Q28.21 14.15 27.46 13.27L27.46 13.27L27.46 13.27Q26.71 12.39 26.71 10.49L26.71 10.49L26.71 10.49Q26.71 8.58 27.47 7.71L27.47 7.71L27.47 7.71Q28.22 6.83 29.44 6.83L29.44 6.83L29.44 6.83Q30.66 6.83 31.41 7.71L31.41 7.71L31.41 7.71Q32.16 8.58 32.16 10.49L32.16 10.49L32.16 10.49Q32.16 12.39 31.41 13.27L31.41 13.27L31.41 13.27Q30.66 14.15 29.44 14.15L29.44 14.15ZM29.44 13.69L29.44 13.69Q30.42 13.69 31.04 12.96L31.04 12.96L31.04 12.96Q31.65 12.22 31.65 10.49L31.65 10.49L31.65 10.49Q31.65 8.78 31.04 8.04L31.04 8.04L31.04 8.04Q30.42 7.29 29.44 7.29L29.44 7.29L29.44 7.29Q28.46 7.29 27.84 8.04L27.84 8.04L27.84 8.04Q27.22 8.78 27.22 10.49L27.22 10.49L27.22 10.49Q27.22 12.22 27.83 12.96L27.83 12.96L27.83 12.96Q28.45 13.69 29.44 13.69L29.44 13.69Z"></path></g><!----><g data-v-423bf9ae="" id="df2b2f4d-8309-4e4b-b35f-1ae8fa31bf0e" transform="matrix(1.155828682510817,0,0,1.155828682510817,33.58976723071796,-10.412917449794726)" stroke="none" fill="#25BDD6"><path d="M69.752 35.832c0 1.266-1.003 2.292-2.24 2.292s-2.24-1.026-2.24-2.292c0-1.266 1.003-2.292 2.24-2.292s2.24 1.026 2.24 2.292z"></path><path d="M94.368 31.056a2.016 2.016 0 0 0-1.092-1.156 2.003 2.003 0 0 0-1.592.012l-1.476.66c-2.572 1.164-4.788 2.164-6.172 2.164-.532 0-.932-.124-1.408-.748-.144-.18-.22-.364-.164-.7.18-1.108 1.664-3.78 9.572-9.212a2.004 2.004 0 0 0 .712-2.436C88.972 10.8 83.544 7.3 78.052 9.912c-5.56 2.64-10.132 7.7-14.532 12.68-2.648-1.28-5.936-1.568-10.352-1.568-.516.108-1.052.216-1.424.596-.384.38-.588.892-.58 1.424.024 2.316.06 4.876 1.284 8.856-4.584-1.448-10.02-2.724-15.776-2.724-19.84 0-36.604 11.612-36.604 25.356v7.92c0 6.86 5.248 10.924 11.264 12.068.008.248.06.5.168.74.456 1.008.908 1.876 1.324 2.68 1.256 2.428 2.088 4.04 2.088 7.608 0 .52.208.98.532 1.332h2.936c2.06.12 8.496 0 10.556 0h2.936c.324-.352.532-.816.532-1.332 0-3.684.808-5.22 2.036-7.536.432-.824.904-1.708 1.38-2.76.056-.116.056-.248.084-.368h5.14c.028.12.028.252.084.368a45.323 45.323 0 0 0 1.424 2.812c1.196 2.228 1.988 3.688 1.988 7.484 0 .516.208.976.532 1.328h12.192c.328-.352.532-.812.532-1.328 0-3.736.804-5.24 2.008-7.508.44-.836.916-1.724 1.404-2.788.084-.184.104-.384.132-.564 6.132-1.604 16.188-13.46 17.924-22.756 7.756-.916 12.532-3.148 14.952-6.968 2.236-3.5 2.28-8.052.152-13.908zM67.512 42.132c-3.432 0-6.24-2.824-6.24-6.292s2.796-6.292 6.24-6.292 6.24 2.824 6.24 6.292c0 3.464-2.8 6.292-6.24 6.292z"></path></g><!----></svg>