<svg data-v-423bf9ae="" xmlns="http://www.w3.org/2000/svg" viewBox="0 0 73.8661817269706 60" class="icon"><!----><!----><!----><!----><g data-v-423bf9ae="" id="97fee13b-bec1-4348-a356-f5a922370c5f" transform="matrix(0.7705524550072114,0,0,0.7705524550072114,-0.052397878190795666,-6.9866910475641575)" stroke="none" fill="white"><path d="M69.752 35.832c0 1.266-1.003 2.292-2.24 2.292s-2.24-1.026-2.24-2.292c0-1.266 1.003-2.292 2.24-2.292s2.24 1.026 2.24 2.292z"></path><path d="M94.368 31.056a2.016 2.016 0 0 0-1.092-1.156 2.003 2.003 0 0 0-1.592.012l-1.476.66c-2.572 1.164-4.788 2.164-6.172 2.164-.532 0-.932-.124-1.408-.748-.144-.18-.22-.364-.164-.7.18-1.108 1.664-3.78 9.572-9.212a2.004 2.004 0 0 0 .712-2.436C88.972 10.8 83.544 7.3 78.052 9.912c-5.56 2.64-10.132 7.7-14.532 12.68-2.648-1.28-5.936-1.568-10.352-1.568-.516.108-1.052.216-1.424.596-.384.38-.588.892-.58 1.424.024 2.316.06 4.876 1.284 8.856-4.584-1.448-10.02-2.724-15.776-2.724-19.84 0-36.604 11.612-36.604 25.356v7.92c0 6.86 5.248 10.924 11.264 12.068.008.248.06.5.168.74.456 1.008.908 1.876 1.324 2.68 1.256 2.428 2.088 4.04 2.088 7.608 0 .52.208.98.532 1.332h2.936c2.06.12 8.496 0 10.556 0h2.936c.324-.352.532-.816.532-1.332 0-3.684.808-5.22 2.036-7.536.432-.824.904-1.708 1.38-2.76.056-.116.056-.248.084-.368h5.14c.028.12.028.252.084.368a45.323 45.323 0 0 0 1.424 2.812c1.196 2.228 1.988 3.688 1.988 7.484 0 .516.208.976.532 1.328h12.192c.328-.352.532-.812.532-1.328 0-3.736.804-5.24 2.008-7.508.44-.836.916-1.724 1.404-2.788.084-.184.104-.384.132-.564 6.132-1.604 16.188-13.46 17.924-22.756 7.756-.916 12.532-3.148 14.952-6.968 2.236-3.5 2.28-8.052.152-13.908zM67.512 42.132c-3.432 0-6.24-2.824-6.24-6.292s2.796-6.292 6.24-6.292 6.24 2.824 6.24 6.292c0 3.464-2.8 6.292-6.24 6.292z"></path></g><!----></svg>